<svg width="256" height="256" viewBox="0 0 256 256" fill="none" xmlns="http://www.w3.org/2000/svg">
<path d="M210.8 219.175H45.2C41.825 219.175 39.075 216.425 39.075 213.05V125.425H216.9V213.025C216.925 216.425 214.175 219.175 210.8 219.175Z" fill="#6A994E"/>
<path d="M210.5 220.6H45.5C41.175 220.6 37.65 217.075 37.65 212.75V124H218.375V212.75C218.35 217.075 214.825 220.6 210.5 220.6ZM40.525 126.875V212.75C40.525 215.5 42.75 217.725 45.5 217.725H210.5C213.25 217.725 215.475 215.5 215.475 212.75V126.875H40.525Z" fill="#333336"/>
<path d="M121.425 208.975H52C50.45 208.975 49.2 207.725 49.2 206.175V130.45H124.25V206.15C124.25 207.7 123 208.975 121.425 208.975Z" fill="#6A994E"/>
<path d="M121.3 210.4H52.125C49.7 210.4 47.75 208.425 47.75 206.025V129H125.7V206.025C125.7 208.45 123.725 210.4 121.3 210.4ZM50.625 131.875V206.025C50.625 206.85 51.3 207.525 52.125 207.525H121.3C122.125 207.525 122.8 206.85 122.8 206.025V131.875H50.625Z" fill="#333336"/>
<path d="M203.425 208.975H133.975C132.425 208.975 131.175 207.725 131.175 206.175V130.45H206.25V206.15C206.225 207.7 204.975 208.975 203.425 208.975Z" fill="#6A994E"/>
<path d="M203.3 210.4H134.125C131.7 210.4 129.75 208.425 129.75 206.025V129H207.7V206.025C207.675 208.45 205.7 210.4 203.3 210.4ZM132.625 131.875V206.025C132.625 206.85 133.3 207.525 134.125 207.525H203.3C204.125 207.525 204.8 206.85 204.8 206.025V131.875H132.625Z" fill="#333336"/>
<path d="M201.55 147.375H54.45C45.95 147.375 39.075 140.5 39.075 132V86.625C39.075 85.425 40.05 84.45 41.25 84.45H214.7C215.9 84.45 216.875 85.425 216.875 86.625V132C216.925 140.5 210.025 147.375 201.55 147.375Z" fill="#DCE775"/>
<path d="M200.825 148.825H55.175C45.5 148.825 37.65 140.95 37.65 131.3V86.725C37.65 84.675 39.325 83 41.375 83H214.625C216.675 83 218.35 84.675 218.35 86.725V131.275C218.35 140.95 210.5 148.825 200.825 148.825ZM41.375 85.875C40.9 85.875 40.525 86.25 40.525 86.725V131.275C40.525 139.35 47.1 145.925 55.175 145.925H200.825C208.9 145.925 215.475 139.35 215.475 131.275V86.725C215.475 86.25 215.1 85.875 214.625 85.875H41.375Z" fill="#333336"/>
<path d="M99.325 168.75H74.1C73.9 168.75 73.725 168.575 73.725 168.375V135.625C73.725 135.425 73.9 135.25 74.1 135.25H99.325C99.525 135.25 99.7 135.425 99.7 135.625V168.375C99.7 168.575 99.55 168.75 99.325 168.75Z" fill="#957DAD"/>
<path d="M99.325 170.175H74.125C73.125 170.175 72.3 169.35 72.3 168.35V135.65C72.3 134.65 73.125 133.825 74.125 133.825H99.325C100.325 133.825 101.15 134.65 101.15 135.65V168.35C101.15 169.375 100.325 170.175 99.325 170.175ZM75.175 167.3H98.275V136.7H75.175V167.3Z" fill="#333336"/>
<path d="M100.625 151.625H72.8C71.55 151.625 70.55 150.625 70.55 149.375V146.95C70.55 145.7 71.55 144.7 72.8 144.7H100.625C101.875 144.7 102.875 145.7 102.875 146.95V149.375C102.875 150.6 101.875 151.625 100.625 151.625Z" fill="#DCE775"/>
<path d="M100.525 153.05H72.9C70.8 153.05 69.1 151.35 69.1 149.25V147.025C69.1 144.925 70.8 143.225 72.9 143.225H100.525C102.625 143.225 104.325 144.925 104.325 147.025V149.25C104.325 151.35 102.625 153.05 100.525 153.05ZM72.9 146.125C72.4 146.125 71.975 146.525 71.975 147.05V149.275C71.975 149.775 72.375 150.2 72.9 150.2H100.525C101.025 150.2 101.45 149.8 101.45 149.275V147.05C101.45 146.55 101.05 146.125 100.525 146.125H72.9ZM86.725 163.5C85.925 163.5 85.275 162.85 85.275 162.05V158.15C85.275 157.35 85.925 156.7 86.725 156.7C87.525 156.7 88.175 157.35 88.175 158.15V162.05C88.15 162.85 87.5 163.5 86.725 163.5Z" fill="#333336"/>
<path d="M180.925 168.75H155.7C155.5 168.75 155.325 168.575 155.325 168.375V135.625C155.325 135.425 155.5 135.25 155.7 135.25H180.925C181.125 135.25 181.3 135.425 181.3 135.625V168.375C181.3 168.575 181.15 168.75 180.925 168.75Z" fill="#957DAD"/>
<path d="M180.925 170.175H155.725C154.725 170.175 153.9 169.35 153.9 168.35V135.65C153.9 134.65 154.725 133.825 155.725 133.825H180.925C181.925 133.825 182.75 134.65 182.75 135.65V168.35C182.75 169.375 181.925 170.175 180.925 170.175ZM156.775 167.3H179.875V136.7H156.775V167.3Z" fill="#333336"/>
<path d="M182.25 151.625H154.4C153.15 151.625 152.15 150.625 152.15 149.375V146.95C152.15 145.7 153.15 144.7 154.4 144.7H182.25C183.5 144.7 184.5 145.7 184.5 146.95V149.375C184.5 150.6 183.475 151.625 182.25 151.625Z" fill="#DCE775"/>
<path d="M182.125 153.05H154.5C152.4 153.05 150.7 151.35 150.7 149.25V147.025C150.7 144.925 152.4 143.225 154.5 143.225H182.125C184.225 143.225 185.925 144.925 185.925 147.025V149.25C185.925 151.35 184.225 153.05 182.125 153.05ZM154.5 146.125C154 146.125 153.575 146.525 153.575 147.05V149.275C153.575 149.775 153.975 150.2 154.5 150.2H182.125C182.625 150.2 183.05 149.8 183.05 149.275V147.05C183.05 146.55 182.65 146.125 182.125 146.125H154.5Z" fill="#333336"/>
<path d="M168.325 163.5C167.525 163.5 166.875 162.85 166.875 162.05V158.15C166.875 157.35 167.525 156.7 168.325 156.7C169.125 156.7 169.775 157.35 169.775 158.15V162.05C169.75 162.85 169.125 163.5 168.325 163.5Z" fill="#333336"/>
<path d="M166.075 68.3C168.8 66.325 169.575 62.625 167.875 59.725C162.4 50.375 148.875 31.825 127.5 31.825C104.35 31.825 91.65 50.5 86.75 59.825C85.25 62.7 86.1 66.25 88.725 68.15L88.775 68.175C91.975 70.5 96.475 69.45 98.375 65.975C103.1 57.325 112.925 43.45 127.5 43.45C141.65 43.45 151.75 57.55 156.6 66.2C158.5 69.6 162.925 70.575 166.075 68.3Z" fill="#DCE775"/>
<path d="M162.275 70.975C161.7 70.975 161.125 70.925 160.575 70.8C158.375 70.325 156.475 68.9 155.35 66.925C150.725 58.7 140.975 44.9 127.5 44.9C113.575 44.9 104.05 58.55 99.625 66.675C98.525 68.7 96.6 70.15 94.35 70.65C92.125 71.15 89.775 70.675 87.925 69.35L87.875 69.325C84.675 67.025 83.65 62.65 85.475 59.15C88.05 54.25 92.525 47.175 99.325 41.25C107.575 34.05 117.05 30.4 127.5 30.4C137.175 30.4 146.275 34.025 154.6 41.2C161.45 47.1 166.275 54.15 169.125 59.025C171.2 62.575 170.25 67.075 166.925 69.475C165.55 70.45 163.925 70.975 162.275 70.975ZM127.5 42.025C142.45 42.025 152.925 56.75 157.85 65.5C158.55 66.75 159.775 67.65 161.175 67.975C162.575 68.275 164.05 67.975 165.225 67.125C167.35 65.6 167.95 62.725 166.625 60.45C163.875 55.775 159.25 49 152.7 43.35C144.925 36.65 136.45 33.25 127.475 33.25C117.75 33.25 108.9 36.65 101.2 43.4C94.75 49.025 90.475 55.8 88 60.475C86.825 62.7 87.5 65.5 89.55 66.975L89.6 67C90.775 67.85 92.275 68.15 93.7 67.85C95.125 67.525 96.375 66.6 97.075 65.3C101.85 56.6 112.075 42.025 127.5 42.025Z" fill="#333336"/>
<path d="M94.025 61.9L84 78.25Z" fill="#FFD632"/>
<path d="M82.7603 77.4853L92.7888 61.1425L95.2393 62.646L85.2108 78.989L82.7603 77.4853Z" fill="#333336"/>
<path d="M161.05 61.9L171.075 78.25Z" fill="#FFD632"/>
<path d="M159.813 62.647L162.263 61.1435L172.292 77.4862L169.842 78.9897L159.813 62.647Z" fill="#333336"/>
<path d="M85.75 84.05H68.8C67.275 84.05 66.05 82.825 66.05 81.3V78.325C66.05 76.8 67.275 75.575 68.8 75.575H85.75C87.275 75.575 88.5 76.8 88.5 78.325V81.3C88.5 82.825 87.25 84.05 85.75 84.05Z" fill="#957DAD"/>
<path d="M85.6 85.5H68.9C66.525 85.5 64.575 83.55 64.575 81.175V78.45C64.575 76.075 66.525 74.125 68.9 74.125H85.6C87.975 74.125 89.925 76.075 89.925 78.45V81.175C89.925 83.55 88 85.5 85.6 85.5ZM68.925 77.025C68.125 77.025 67.475 77.675 67.475 78.475V81.2C67.475 82 68.125 82.65 68.925 82.65H85.625C86.425 82.65 87.075 82 87.075 81.2V78.475C87.075 77.675 86.425 77.025 85.625 77.025H68.925Z" fill="#333336"/>
<path d="M186.25 84.05H169.3C167.775 84.05 166.55 82.825 166.55 81.3V78.325C166.55 76.8 167.775 75.575 169.3 75.575H186.25C187.775 75.575 189 76.8 189 78.325V81.3C189 82.825 187.775 84.05 186.25 84.05Z" fill="#957DAD"/>
<path d="M186.1 85.5H169.4C167.025 85.5 165.075 83.55 165.075 81.175V78.45C165.075 76.075 167.025 74.125 169.4 74.125H186.1C188.475 74.125 190.425 76.075 190.425 78.45V81.175C190.425 83.55 188.5 85.5 186.1 85.5ZM169.425 77.025C168.625 77.025 167.975 77.675 167.975 78.475V81.2C167.975 82 168.625 82.65 169.425 82.65H186.125C186.925 82.65 187.575 82 187.575 81.2V78.475C187.575 77.675 186.925 77.025 186.125 77.025H169.425Z" fill="#333336"/>
<path d="M235.542 241.734C237.69 243.874 241.171 243.874 243.319 241.734C245.467 239.594 245.467 236.123 243.319 233.984L229.016 219.734C226.808 222.671 224.186 225.282 221.238 227.482L235.542 241.734Z" fill="#6A994E"/>
<path d="M198.18 226.9C214.887 226.9 228.43 213.406 228.43 196.76C228.43 180.114 214.887 166.62 198.18 166.62C181.474 166.62 167.93 180.114 167.93 196.76C167.93 213.406 181.474 226.9 198.18 226.9Z" fill="#B39DDB"/>
<path d="M198.18 161.14C178.436 161.14 162.43 177.088 162.43 196.76C162.43 216.432 178.436 232.38 198.18 232.38C217.924 232.38 233.93 216.432 233.93 196.76C233.93 177.088 217.924 161.14 198.18 161.14ZM198.18 229.64C179.954 229.64 165.18 214.919 165.18 196.76C165.18 178.601 179.954 163.88 198.18 163.88C216.406 163.88 231.18 178.601 231.18 196.76C231.18 214.919 216.406 229.64 198.18 229.64Z" fill="#7E57C2"/>
<path d="M245.263 232.047L230.6 217.437C234.443 211.468 236.68 204.377 236.68 196.76C236.68 175.574 219.443 158.4 198.18 158.4C176.917 158.4 159.68 175.574 159.68 196.76C159.68 217.946 176.917 235.12 198.18 235.12C205.825 235.12 212.942 232.891 218.933 229.062L233.596 243.672C236.819 246.883 242.042 246.883 245.263 243.672C248.485 240.46 248.486 235.258 245.263 232.047ZM198.18 232.38C178.436 232.38 162.43 216.432 162.43 196.76C162.43 177.088 178.436 161.14 198.18 161.14C217.924 161.14 233.93 177.088 233.93 196.76C233.93 216.432 217.924 232.38 198.18 232.38ZM243.319 241.734C241.171 243.874 237.688 243.874 235.542 241.734L221.238 227.482C224.187 225.282 226.808 222.669 229.016 219.734L243.319 233.984C245.468 236.123 245.468 239.594 243.319 241.734Z" fill="#394240"/>
<path d="M198.18 163.88C179.954 163.88 165.18 178.601 165.18 196.76C165.18 214.919 179.954 229.64 198.18 229.64C216.406 229.64 231.18 214.919 231.18 196.76C231.18 178.601 216.406 163.88 198.18 163.88ZM198.18 226.9C181.474 226.9 167.93 213.405 167.93 196.76C167.93 180.114 181.474 166.62 198.18 166.62C214.887 166.62 228.43 180.114 228.43 196.76C228.43 213.405 214.887 226.9 198.18 226.9Z" fill="#394240"/>
<path d="M198.18 173.47C197.42 173.47 196.805 174.082 196.805 174.84C196.805 175.598 197.42 176.21 198.18 176.21C209.571 176.21 218.805 185.411 218.805 196.76C218.805 197.518 219.42 198.13 220.18 198.13C220.941 198.13 221.555 197.518 221.555 196.76C221.555 183.897 211.09 173.47 198.18 173.47Z" fill="#394240"/>
</svg>
